Coordinates
version=1
nRows=18
nColumns=22
inDegrees=yes

Units are S.I. units (second, meters, Newtons, ...)
If the header above contains a line with 'inDegrees', this indicates whether rotational values are in degrees (yes) or radians (no).

endheader
time	pelvis_tilt	pelvis_list	pelvis_rotation	pelvis_tx	pelvis_ty	pelvis_tz	hip_flexion_r	hip_adduction_r	hip_rotation_r	knee_angle_r	ankle_angle_r	subtalar_angle_r	hip_flexion_l	hip_adduction_l	hip_rotation_l	knee_angle_l	ankle_angle_l	subtalar_angle_l	lumbar_extension	lumbar_bending	lumbar_rotation
      3.95000000	     -5.69409616	     -2.46611790	      0.34044042	     -0.28067352	      0.94449950	     -0.23038959	      6.60356370	      1.57617652	      0.06386751	    -38.71547774	      8.21665791	      2.95805153	     22.11737779	     -0.04050328	     -3.81270987	    -24.37377722	      7.99022364	     -3.68659167	     -6.78350711	     -0.71396739	      1.02716997
      3.96000000	     -5.83718999	     -2.38163279	      0.10230138	     -0.28641691	      0.94395492	     -0.22857389	      5.75914635	      1.52648780	      0.02313016	    -36.81604903	      8.92425407	      3.27740010	     22.66789488	     -0.13960048	     -3.97581443	    -24.43829670	      7.73032738	     -3.49548442	     -6.66223895	     -0.86085044	      1.39649738
      3.97000000	     -5.98164211	     -2.30135556	     -0.15813346	     -0.29229000	      0.94335996	     -0.22665298	      4.99856785	      1.49513094	      0.01632274	    -34.94080473	      9.73983296	      3.49206289	     23.23232998	     -0.25786484	     -4.14768905	    -24.51257847	      7.45014468	     -3.32353490	     -6.55314591	     -1.00565834	      1.77780010
      3.98000000	     -6.15243502	     -2.22340973	     -0.41187949	     -0.29833920	      0.94266430	     -0.22466687	      4.36584799	      1.48104260	      0.02443627	    -33.13531490	     10.62006849	      3.54394975	     23.85794024	     -0.38091457	     -4.29235424	    -24.62177020	      7.10368644	     -3.19100535	     -6.43158195	     -1.14877803	      2.11874610
      3.99000000	     -6.24397201	     -2.15230261	     -0.74163308	     -0.30443262	      0.94207324	     -0.22249571	      3.74154305	      1.49213523	      0.13153178	    -31.40454193	     11.53961637	      3.64720762	     24.36314662	     -0.55440912	     -4.52321373	    -24.67944464	      6.85997395	     -3.01230622	     -6.40801542	     -1.29221180	      2.55870835
      4.00000000	     -6.36744911	     -2.08566563	     -1.01964562	     -0.31072564	      0.94137455	     -0.22032922	      3.26938352	      1.51830360	      0.20393273	    -29.81099115	     12.46382818	      3.62646017	     24.94907503	     -0.71371775	     -4.66411128	    -24.78562378	      6.51837745	     -2.87113080	     -6.36938527	     -1.42915224	      2.89215479
      4.01000000	     -6.44416125	     -2.02533630	     -1.37054999	     -0.31708622	      0.94074135	     -0.21799599	      2.86306738	      1.56966490	      0.37542595	    -28.35903407	     13.35730956	      3.54764285	     25.45686651	     -0.92467071	     -4.89920116	    -24.85107054	      6.26320766	     -2.67027066	     -6.39067678	     -1.56488729	      3.31349443
      4.02000000	     -6.50768168	     -1.96921632	     -1.69069240	     -0.32356768	      0.94010565	     -0.21564338	      2.55205782	      1.63810621	      0.53520799	    -27.05776488	     14.18890463	      3.35874217	     25.97162664	     -1.13660016	     -5.09641599	    -24.93674039	      5.99403340	     -2.41253465	     -6.44173591	     -1.69824193	      3.65844377
      4.03000000	     -6.54936235	     -1.93825899	     -1.97100470	     -0.33016392	      0.93948266	     -0.21332297	      2.33073608	      1.73615325	      0.63024444	    -25.92339746	     14.99805191	      3.21863287	     26.47319083	     -1.35475102	     -5.20485207	    -25.02332553	      5.69525851	     -2.23188753	     -6.53326789	     -1.79885527	      3.95806247
      4.04000000	     -6.57929628	     -1.91236521	     -2.28792299	     -0.33678315	      0.93890459	     -0.21090161	      2.19302202	      1.85766218	      0.76505589	    -24.92891986	     15.67158785	      2.74696971	     26.93371701	     -1.61421804	     -5.39758805	    -25.06899009	      5.52657340	     -1.74609389	     -6.63511720	     -1.89830926	      4.27798541
      4.05000000	     -6.58105823	     -1.90333805	     -2.57732168	     -0.34346591	      0.93837621	     -0.20851936	      2.11801723	      2.00055520	      0.86035258	    -24.08129063	     16.31793463	      2.51128890	     27.35517337	     -1.87894231	     -5.54765584	    -25.09217583	      5.33546428	     -1.43173998	     -6.77684824	     -1.97459192	      4.56039857
      4.06000000	     -6.56662399	     -1.90379551	     -2.82375929	     -0.35018850	      0.93788998	     -0.20619417	      2.09928091	      2.15941974	      0.88469675	    -23.35092400	     16.88304245	      2.14430932	     27.75237218	     -2.14207212	     -5.67357903	    -25.09550253	      5.20741483	     -0.88646498	     -6.94261078	     -2.03582198	      4.77561554
      4.07000000	     -6.53244824	     -1.91435182	     -3.02292511	     -0.35693485	      0.93745599	     -0.20396623	      2.12516509	      2.32640664	      0.81572597	    -22.72607198	     17.37205246	      1.77551936	     28.11439819	     -2.39843013	     -5.78020703	    -25.06763381	      5.11208609	     -0.27481582	     -7.13437800	     -2.07707614	      4.92901023
      4.08000000	     -6.49419797	     -1.93354750	     -3.20858461	     -0.36370402	      0.93706845	     -0.20178102	      2.20876253	      2.50752398	      0.72273095	    -22.20078688	     17.81930828	      1.44796511	     28.43071044	     -2.65965205	     -5.89050830	    -24.96878283	      5.07918936	      0.40342632	     -7.33038930	     -2.10423886	      5.07650825
      4.09000000	     -6.45382915	     -1.96126050	     -3.35372295	     -0.37048380	      0.93671765	     -0.19968838	      2.33903728	      2.69716086	      0.56286514	    -21.75598253	     18.21596980	      1.11744798	     28.70990942	     -2.91578373	     -6.00452864	    -24.80434755	      5.10267165	      1.20179398	     -7.52840188	     -2.11358629	      5.17153801
      4.10000000	     -6.41581358	     -1.99480280	     -3.47201298	     -0.37727860	      0.93640233	     -0.19768049	      2.51645829	      2.89173825	      0.36217300	    -21.38307178	     18.55433984	      0.78332605	     28.95671615	     -3.17213351	     -6.15100368	    -24.57743329	      5.18997442	      2.11688416	     -7.72362695	     -2.10766006	      5.23927512
      4.11000000	     -6.38541593	     -2.03272029	     -3.56271368	     -0.38408013	      0.93611649	     -0.19576361	      2.73880425	      3.08971996	      0.13949152	    -21.07107868	     18.84861190	      0.45450151	     29.17135237	     -3.42395436	     -6.32440629	    -24.28012577	      5.33900497	      3.12920950	     -7.90944737	     -2.08876320	      5.28347367
      4.12000000	     -6.36545961	     -2.07476245	     -3.62867985	     -0.39087717	      0.93585463	     -0.19393736	      3.00243662	      3.29038934	     -0.08759373	    -20.81154830	     19.09946968	      0.12720826	     29.35795525	     -3.67213417	     -6.53090216	    -23.91600371	      5.54877966	      4.23772478	     -8.08161569	     -2.05678213	      5.30823366
